ModelForces
version=1
nRows=4
nColumns=155
inDegrees=no

This file contains the forces exerted on a model during a simulation.

A force is a generalized force, meaning that it can be either a force (N) or a torque (Nm).

Units are S.I. units (second, meters, Newtons, ...)
Angles are in degrees.

endheader
time	glut_med1_r	glut_med2_r	glut_med3_r	glut_min1_r	glut_min2_r	glut_min3_r	semimem_r	semiten_r	bifemlh_r	bifemsh_r	sar_r	add_long_r	add_brev_r	add_mag1_r	add_mag2_r	add_mag3_r	tfl_r	pect_r	grac_r	glut_max1_r	glut_max2_r	glut_max3_r	iliacus_r	psoas_r	quad_fem_r	gem_r	peri_r	rect_fem_r	vas_med_r	vas_int_r	vas_lat_r	med_gas_r	lat_gas_r	soleus_r	tib_post_r	flex_dig_r	flex_hal_r	tib_ant_r	per_brev_r	per_long_r	per_tert_r	ext_dig_r	ext_hal_r	glut_med1_l	glut_med2_l	glut_med3_l	glut_min1_l	glut_min2_l	glut_min3_l	semimem_l	semiten_l	bifemlh_l	bifemsh_l	sar_l	add_long_l	add_brev_l	add_mag1_l	add_mag2_l	add_mag3_l	tfl_l	pect_l	grac_l	glut_max1_l	glut_max2_l	glut_max3_l	iliacus_l	psoas_l	quad_fem_l	gem_l	peri_l	rect_fem_l	vas_med_l	vas_int_l	vas_lat_l	med_gas_l	lat_gas_l	soleus_l	tib_post_l	flex_dig_l	flex_hal_l	tib_ant_l	per_brev_l	per_long_l	per_tert_l	ext_dig_l	ext_hal_l	ercspn_r	ercspn_l	intobl_r	intobl_l	extobl_r	extobl_l	femur_lat_meniscii_r.femur_lat_r.force.X	femur_lat_meniscii_r.femur_lat_r.force.Y	femur_lat_meniscii_r.femur_lat_r.force.Z	femur_lat_meniscii_r.femur_lat_r.torque.X	femur_lat_meniscii_r.femur_lat_r.torque.Y	femur_lat_meniscii_r.femur_lat_r.torque.Z	femur_lat_meniscii_r.meniscus_lat_r.force.X	femur_lat_meniscii_r.meniscus_lat_r.force.Y	femur_lat_meniscii_r.meniscus_lat_r.force.Z	femur_lat_meniscii_r.meniscus_lat_r.torque.X	femur_lat_meniscii_r.meniscus_lat_r.torque.Y	femur_lat_meniscii_r.meniscus_lat_r.torque.Z	femur_med_meniscii_r.femur_med_r.force.X	femur_med_meniscii_r.femur_med_r.force.Y	femur_med_meniscii_r.femur_med_r.force.Z	femur_med_meniscii_r.femur_med_r.torque.X	femur_med_meniscii_r.femur_med_r.torque.Y	femur_med_meniscii_r.femur_med_r.torque.Z	femur_med_meniscii_r.meniscus_med_r.force.X	femur_med_meniscii_r.meniscus_med_r.force.Y	femur_med_meniscii_r.meniscus_med_r.force.Z	femur_med_meniscii_r.meniscus_med_r.torque.X	femur_med_meniscii_r.meniscus_med_r.torque.Y	femur_med_meniscii_r.meniscus_med_r.torque.Z	femur_med_tibia_r.tibia_upper_r.force.X	femur_med_tibia_r.tibia_upper_r.force.Y	femur_med_tibia_r.tibia_upper_r.force.Z	femur_med_tibia_r.tibia_upper_r.torque.X	femur_med_tibia_r.tibia_upper_r.torque.Y	femur_med_tibia_r.tibia_upper_r.torque.Z	femur_med_tibia_r.femur_med_r.force.X	femur_med_tibia_r.femur_med_r.force.Y	femur_med_tibia_r.femur_med_r.force.Z	femur_med_tibia_r.femur_med_r.torque.X	femur_med_tibia_r.femur_med_r.torque.Y	femur_med_tibia_r.femur_med_r.torque.Z	femur_lat_tibia_r.tibia_upper_r.force.X	femur_lat_tibia_r.tibia_upper_r.force.Y	femur_lat_tibia_r.tibia_upper_r.force.Z	femur_lat_tibia_r.tibia_upper_r.torque.X	femur_lat_tibia_r.tibia_upper_r.torque.Y	femur_lat_tibia_r.tibia_upper_r.torque.Z	femur_lat_tibia_r.femur_lat_r.force.X	femur_lat_tibia_r.femur_lat_r.force.Y	femur_lat_tibia_r.femur_lat_r.force.Z	femur_lat_tibia_r.femur_lat_r.torque.X	femur_lat_tibia_r.femur_lat_r.torque.Y	femur_lat_tibia_r.femur_lat_r.torque.Z	aACL_R	pACL_R	aPCL_R	pPCL_R	aMCL_R	mMCL_R	pMCL_R	aLCL_R	mLCL_R	pLCL_R	aPCL_L	pPCL_L	aMCL_L	aLCL_L
      0.16211111	     11.54915853	      8.43286123	      9.07107684	      3.89191360	      4.52120665	      4.90169356	      0.00000000	    163.98396413	    148.02469558	    304.32359617	    129.20967646	      8.39383938	      6.04000219	      2.23627485	      3.67795277	      6.20443777	      5.11910743	      3.28532645	     98.79201939	      5.44520420	      8.28373887	      6.22610879	     27.70794230	     18.71254554	      5.35295682	      3.68251636	      6.26637720	     52.13918258	     31.17249609	     33.41313529	     45.28809825	      0.00000000	      0.00000000	      0.00000000	      0.00000000	      0.00000000	      0.00000000	     33.28293096	      2.33791404	      2.84777265	      7.17554263	     40.65766312	     10.47576651	     11.54915853	      8.43286123	      9.07107684	      3.89191360	      4.52120665	      4.90169356	      0.00000000	      6.25323391	     12.34151184	     10.65449487	      2.22053240	      8.39383938	      6.04000219	      2.23627485	      3.67795277	      6.20443777	      5.46820092	      3.28532645	      2.29270019	      5.44520420	      8.28373887	      6.22610879	     27.70794230	     18.71254554	      5.35295682	      3.68251636	      6.26637720	     17.21073621	      0.00000000	      0.00000000	      0.00000000	     21.22477305	     10.03658221	     51.26285573	     51.22728460	      5.50197907	      4.92340573	     13.38350712	      7.16387068	     18.33713620	      2.89312292	      8.94070046	      2.80738366	     36.63419104	     36.63419104	     13.62284053	     13.62284053	     30.97294098	     30.97294098	    113.68198195	    222.98791552	     25.64041254	    -15.66315541	      2.75233993	     44.32349582	   -113.68198195	   -222.98791552	    -25.64041254	      6.08162709	     -3.42816469	      4.03562793	     29.81691757	     29.06251294	     14.39014555	     -5.13227779	     -0.67661490	     11.95973480	    -29.81691757	    -29.06251294	    -14.39014555	     -0.38165073	      0.34560036	      0.13385145	   -699.94081072	   -683.72342984	    213.42938327	    -15.82030238	     15.90050286	     -0.88866444	    699.94081072	    683.72342984	   -213.42938327	     99.18449244	    -12.61356518	    284.81093489	      0.00000000	      0.00000000	      0.00000000	      0.00000000	      0.00000000	      0.00000000	      0.00000000	      0.00000000	      0.00000000	      0.00000000	      0.00000000	      0.00000000	      1.24524606	      0.00000000	    548.34382870	    357.42166226	      0.00000000	      0.00000000	      0.00000000	      0.00000000	      0.00000000	      0.00000000	      0.00000000	      0.00000000	      0.00000001	      0.00000000
      0.16237790	     11.53605178	      8.42313227	      9.06048677	      3.88760690	      4.51649278	      4.89567610	      0.00000000	    164.06094702	    148.01351666	    304.29186589	    129.22761080	      8.38404443	      6.03338062	      2.44911423	      3.67363330	      6.19661172	      5.11149149	      3.28166496	     98.80531749	      5.43889625	      8.27412134	      6.21876905	     27.69000439	     18.69208746	      5.34690467	      3.67955675	      6.26381050	     52.36001435	     31.17546782	     33.41249552	     45.28067333	      0.00000000	      0.00000000	      0.00000000	      0.00000000	      0.00000000	      0.00000000	     33.32691039	      2.32971141	      2.84759374	     26.01445633	     40.84009716	     10.52015180	     11.53605178	      8.42313227	      9.06048677	      3.88760690	      4.51649278	      4.89567610	      0.00000000	      6.24556697	     12.32688749	     10.64243464	      2.21808667	      8.38404443	      6.03338062	      2.44911423	      3.67363330	      6.19661172	      5.46338147	      3.28166496	      2.29013065	      5.43889625	      8.27412134	      6.21876905	     27.69000439	     18.69208746	      5.34690467	      3.67955675	      6.26381050	     17.18817782	      0.00000000	      0.00000000	      0.00000000	     21.21911214	     10.03294285	     51.21026003	     51.19887120	      5.49615135	      4.91820191	     13.36702438	      7.15451912	     18.31982758	      2.88997167	      8.92790462	      2.80347924	     36.59356168	     36.59356168	     13.60652378	     13.60652378	     30.95814067	     30.95814067	    117.07505629	    220.78070651	     24.74533257	    -15.22437382	      2.83965140	     45.75170502	   -117.07505629	   -220.78070651	    -24.74533257	      5.98470083	     -3.50379601	      3.88858766	     30.08122002	     28.99727444	     14.19944302	     -5.05678047	     -0.68184333	     12.06359269	    -30.08122002	    -28.99727444	    -14.19944302	     -0.38412030	      0.35351406	      0.13333552	   -703.22432320	   -683.73270108	    214.00287710	    -15.81140567	     15.97145231	     -0.87062107	    703.22432320	    683.73270108	   -214.00287710	     99.40663515	    -12.66833202	    286.12216002	      0.00000000	      0.00000000	      0.00000000	      0.00000000	      0.00000000	      0.00000000	      0.00000000	      0.00000000	      0.00000000	      0.00000000	      0.00000000	      0.00000000	      1.20542328	      0.00000000	    551.13916667	    358.86927193	      0.00000000	      0.00000000	      0.00000000	      0.00000000	      0.00000000	      0.00000000	      0.00000000	      0.00000000	      0.00000001	      0.00000000
      0.16264469	     11.52296839	      8.41343816	      9.04993474	      3.88331547	      4.51179577	      4.88967982	      0.00000000	    164.13455725	    147.99834280	    304.24670142	    129.24424736	      8.37428466	      6.02678248	      2.63320201	      3.66932929	      6.18881363	      5.10387224	      3.27801649	     98.81697233	      5.43261102	      8.26453843	      6.21145577	     27.67213168	     18.67170389	      5.34087410	      3.67660799	      6.26121251	     52.57844111	     31.16722540	     33.40333648	     45.26453708	      0.00000000	      0.00000000	      0.00000000	      0.00000000	      0.00000000	      0.00000000	     33.37055937	      2.32171676	      2.84755003	     22.75467554	     41.01686483	     10.56181775	     11.52296839	      8.41343816	      9.04993474	      3.88331547	      4.51179577	      4.88967982	      0.00000000	      6.23792763	     12.31229152	     10.63041747	      2.21564961	      8.37428466	      6.02678248	      2.63320201	      3.66932929	      6.18881363	      5.45857895	      3.27801649	      2.28757025	      5.43261102	      8.26453843	      6.21145577	     27.67213168	     18.67170389	      5.34087410	      3.67660799	      6.26121251	     17.16569530	      0.00000000	      0.00000000	      0.00000000	     21.21335902	     10.02926290	     51.15767008	     51.17053021	      5.49030476	      4.91297068	     13.35058635	      7.14519494	     18.30255063	      2.88683187	      8.91523778	      2.79962334	     36.55307652	     36.55307652	     13.59026576	     13.59026576	     30.94339438	     30.94339438	    117.03090963	    220.78884778	     25.12717195	    -15.38469670	      2.84047185	     45.72390684	   -117.03090963	   -220.78884778	    -25.12717195	      5.99706050	     -3.51370884	      3.91505877	     30.33047330	     28.66939971	     13.98357115	     -4.97813392	     -0.68694946	     12.16324299	    -30.33047330	    -28.66939971	    -13.98357115	     -0.38038009	      0.36185247	      0.12593548	   -706.69128156	   -684.29731647	    214.78221161	    -15.81480709	     16.04809685	     -0.84304583	    706.69128156	    684.29731647	   -214.78221161	     99.72145470	    -12.72493084	    287.50612399	      0.00000000	      0.00000000	      0.00000000	      0.00000000	      0.00000000	      0.00000000	      0.00000000	      0.00000000	      0.00000000	      0.00000000	      0.00000000	      0.00000000	      1.20951211	      0.00000000	    553.94497723	    360.34852258	      0.00000000	      0.00000000	      0.00000000	      0.00000000	      0.00000000	      0.00000000	      0.00000000	      0.00000000	      0.00000001	      0.00000000
      0.16303857	     11.50369600	      8.39918941	      9.03442515	      3.87700750	      4.50489190	      4.88086561	      0.00000000	    164.24116263	    147.97941416	    304.20987733	    129.26896330	      8.35993958	      6.01708375	      2.86325344	      3.66300309	      6.17735157	      5.09264347	      3.27265367	     98.83362379	      5.42337296	      8.25045342	      6.20070674	     27.64586347	     18.64174561	      5.33201000	      3.67227426	      6.25732038	     52.90502014	     31.15595976	     33.39247831	     45.24529222	      0.00000000	      0.00000000	      0.00000000	      0.00000000	      0.00000000	      0.00000000	     33.43474612	      2.30980330	      2.84732603	     26.94029162	     41.27399049	     10.62226559	     11.50369600	      8.39918941	      9.03442515	      3.87700750	      4.50489190	      4.88086561	      0.00000000	      6.22669929	     12.29079474	     10.61275394	      2.21206736	      8.35993958	      6.01708375	      2.86325344	      3.66300309	      6.17735157	      5.45151944	      3.27265367	      2.28380679	      5.42337296	      8.25045342	      6.20070674	     27.64586347	     18.64174561	      5.33201000	      3.67227426	      6.25732038	     17.13264079	      0.00000000	      0.00000000	      0.00000000	     21.20469788	     10.02375632	     51.08004170	     51.12882070	      5.48163759	      4.90519630	     13.32639947	      7.13147892	     18.27710162	      2.88221717	      8.89677148	      2.79401879	     36.49356751	     36.49356751	     13.56636961	     13.56636961	     30.92172154	     30.92172154	    117.11701336	    219.11760589	     25.29924869	    -15.43215414	      2.83994919	     45.76278720	   -117.11701336	   -219.11760589	    -25.29924869	      5.97486839	     -3.51897264	      3.89857113	     30.64077230	     28.48740344	     13.71012580	     -4.87123802	     -0.69267789	     12.28491632	    -30.64077230	    -28.48740344	    -13.71012580	     -0.38266453	      0.37155796	      0.12426995	   -712.57743136	   -684.41408788	    215.35353766	    -15.80069227	     16.16024120	     -0.84534725	    712.57743136	    684.41408788	   -215.35353766	     99.94261149	    -12.82026590	    289.87500282	      0.00000000	      0.00000000	      0.00000000	      0.00000000	      0.00000000	      0.00000000	      0.00000000	      0.00000000	      0.00000000	      0.00000000	      0.00000000	      0.00000000	      1.25736889	      0.00000000	    558.06967543	    362.49676011	      0.00000000	      0.00000000	      0.00000000	      0.00000000	      0.00000000	      0.00000000	      0.00000000	      0.00000000	      0.00000001	      0.00000000
